<?xml version="1.0" encoding="UTF-8" standalone="no"?>
<!DOCTYPE svg PUBLIC "-//W3C//DTD SVG 1.1//EN" "http://www.w3.org/Graphics/SVG/1.1/DTD/svg11.dtd">
<svg width="100%" height="100%" viewBox="0 0 66 78" version="1.1" xmlns="http://www.w3.org/2000/svg" xmlns:xlink="http://www.w3.org/1999/xlink" xml:space="preserve" xmlns:serif="http://www.serif.com/" style="fill-rule:evenodd;clip-rule:evenodd;stroke-linejoin:round;stroke-miterlimit:2;">
    <rect id="画板1" x="0" y="0" width="66" height="78" style="fill:none;"/>
    <clipPath id="_clip1">
        <rect id="画板11" serif:id="画板1" x="0" y="0" width="66" height="78"/>
    </clipPath>
    <g clip-path="url(#_clip1)">
        <g transform="matrix(1.20205,0,0,1.20205,-12.2065,-7.88007)">
            <path d="M27.047,23.381L27.047,6.556C30.776,13.151 35.451,19.358 41.07,24.977C46.689,30.596 52.896,35.271 59.492,39C52.896,42.729 46.689,47.404 41.07,53.023C35.451,58.642 30.776,64.849 27.047,71.444L27.047,54.619C28.842,51.444 31.093,48.456 33.798,45.751C36.503,43.046 39.491,40.795 42.666,39C39.491,37.205 36.503,34.954 33.798,32.249C31.093,29.544 28.842,26.556 27.047,23.381Z" style="fill:rgb(237,228,216);"/>
        </g>
        <g transform="matrix(1.30742,0,0,1.30742,-15.0565,-11.9895)">
            <path d="M37.458,39C35.342,40.197 33.35,41.697 31.547,43.5C29.744,45.303 28.244,47.294 27.047,49.411C25.851,47.294 24.351,45.303 22.548,43.5C20.745,41.697 18.753,40.197 16.636,39C18.753,37.803 20.745,36.303 22.548,34.5C24.351,32.697 25.851,30.706 27.047,28.589C28.244,30.706 29.744,32.697 31.547,34.5C33.35,36.303 35.342,37.803 37.458,39ZM31.784,39C30.821,39.544 29.915,40.227 29.095,41.047C28.274,41.868 27.592,42.774 27.047,43.737C26.503,42.774 25.82,41.868 25,41.047C24.179,40.227 23.273,39.544 22.31,39C23.273,38.456 24.179,37.773 25,36.953C25.82,36.132 26.503,35.226 27.047,34.263C27.592,35.226 28.274,36.132 29.095,36.953C29.915,37.773 30.821,38.456 31.784,39Z" style="fill:rgb(237,228,216);fill-opacity:0.5;"/>
        </g>
    </g>
</svg>
